<?xml version="1.0" standalone="no"?>
<!DOCTYPE svg PUBLIC "-//W3C//DTD SVG 20010904//EN"
 "http://www.w3.org/TR/2001/REC-SVG-20010904/DTD/svg10.dtd">
<svg version="1.0" xmlns="http://www.w3.org/2000/svg"
 width="1277.000000pt" height="512.000000pt" viewBox="0 0 1277.000000 512.000000"
 preserveAspectRatio="xMidYMid meet">

<g transform="translate(0.000000,512.000000) scale(0.100000,-0.100000)"
fill="#000000" stroke="none">
<path d="M3063 4173 c-10 -3 -13 -46 -13 -167 l0 -163 58 -6 c56 -5 74 -12
231 -98 16 -9 41 -23 55 -32 13 -9 41 -26 60 -37 81 -46 132 -75 248 -145 9
-5 46 -27 82 -47 l65 -37 149 88 150 87 -350 205 c-193 112 -391 228 -442 257
-107 62 -254 110 -293 95z"/>
<path d="M1230 3390 c0 -207 0 -209 23 -221 12 -6 74 -42 137 -79 63 -37 163
-95 223 -130 l107 -63 1 -666 c0 -583 5 -1002 12 -1007 26 -17 130 -74 146
-79 11 -3 21 -10 21 -15 0 -4 8 -10 18 -14 9 -3 46 -22 80 -42 35 -19 66 -33
69 -30 4 3 8 370 11 816 4 736 6 810 21 810 9 0 88 -43 176 -96 88 -53 214
-127 280 -166 66 -39 123 -75 127 -82 4 -6 8 -194 8 -418 l0 -407 73 -42 c39
-23 116 -69 171 -101 54 -32 100 -58 101 -56 1 2 0 283 -4 626 -6 524 -9 624
-22 636 -15 14 -1764 1036 -1774 1036 -3 0 -5 -94 -5 -210z"/>
<path d="M4330 2017 c-74 -45 -135 -87 -136 -92 -1 -10 262 -175 278 -175 4 0
8 79 8 175 0 96 -3 175 -7 174 -5 0 -69 -38 -143 -82z"/>
<path d="M2690 868 l0 -224 92 -54 c51 -30 112 -67 137 -83 25 -15 58 -34 72
-42 l26 -14 7 210 c5 146 4 214 -3 223 -6 7 -39 30 -74 51 -34 21 -84 52 -112
70 -27 18 -71 44 -97 59 l-48 28 0 -224z"/>
</g>
</svg>
